<?xml version="1.0" standalone="no"?>
<!DOCTYPE svg PUBLIC "-//W3C//DTD SVG 20010904//EN"
 "http://www.w3.org/TR/2001/REC-SVG-20010904/DTD/svg10.dtd">
<svg version="1.0" xmlns="http://www.w3.org/2000/svg"
 width="602.000000pt" height="480.000000pt" viewBox="0 0 602.000000 480.000000"
 preserveAspectRatio="xMidYMid meet">

<g transform="translate(0.000000,480.000000) scale(0.100000,-0.100000)"
fill="#000000" stroke="none">
<path d="M4250 2550 l0 -790 125 0 125 0 0 790 0 790 -125 0 -125 0 0 -790z"/>
<path d="M410 2520 c0 -412 4 -750 8 -750 4 0 109 108 232 240 124 132 228
240 232 240 4 0 112 -112 240 -250 l233 -250 273 0 c235 0 273 2 270 15 -2 8
-147 168 -323 356 -176 188 -339 362 -363 388 l-42 46 -145 -150 -145 -150 0
508 0 507 -235 0 -235 0 0 -750z"/>
<path d="M1180 2929 l0 -337 106 109 c65 67 103 113 98 120 -4 7 -3 9 3 6 6
-4 37 22 69 56 231 245 306 325 324 349 l21 27 -311 3 -310 3 0 -336z"/>
<path d="M2222 2770 c-40 -11 -97 -32 -125 -47 -70 -37 -176 -145 -209 -213
-132 -268 -32 -589 222 -713 88 -43 152 -57 265 -57 108 0 174 13 250 51 57
28 175 121 175 138 0 3 -40 36 -89 73 l-89 67 -28 -30 c-151 -158 -407 -134
-490 45 -26 57 -30 86 -11 86 6 0 179 1 382 3 l370 2 -1 96 c-2 114 -16 180
-57 269 -35 74 -120 166 -185 199 -101 52 -253 64 -380 31z m229 -185 c62 -22
116 -79 134 -139 28 -94 50 -86 -245 -86 -293 0 -273 -7 -240 83 22 59 76 118
130 141 46 20 165 20 221 1z"/>
<path d="M3475 2774 c-76 -19 -133 -52 -184 -110 l-40 -46 -3 74 -3 73 -117 3
-118 3 0 -746 0 -745 125 0 125 0 0 300 c0 165 3 300 6 300 4 0 27 -18 51 -41
25 -22 70 -53 101 -67 53 -25 67 -27 192 -27 132 0 137 1 201 32 123 61 210
160 256 297 31 90 35 255 8 356 -68 261 -328 410 -600 344z m200 -238 c108
-48 170 -149 169 -277 0 -63 -5 -87 -28 -132 -52 -106 -151 -167 -272 -167
-151 0 -276 117 -291 273 -22 238 204 399 422 303z"/>
<path d="M5015 2774 c-78 -15 -192 -68 -245 -113 l-35 -30 64 -65 64 -65 44
31 c76 52 146 71 243 66 138 -6 210 -62 213 -166 l2 -47 -165 -7 c-289 -11
-427 -67 -498 -202 -23 -44 -27 -63 -27 -136 0 -77 3 -90 31 -140 23 -40 48
-67 92 -97 76 -52 144 -67 274 -61 119 6 185 34 253 110 l45 50 0 -71 0 -71
111 0 110 0 -3 378 c-3 369 -4 378 -27 436 -29 72 -74 124 -140 160 -98 53
-260 69 -406 40z m335 -624 c0 -98 -36 -161 -115 -203 -31 -16 -58 -21 -125
-22 -98 0 -139 16 -170 68 -41 67 -18 132 62 171 64 31 133 43 256 45 l92 1 0
-60z"/>
</g>
</svg>
