<svg xmlns="http://www.w3.org/2000/svg" version="1.0" width="1000.000000pt" height="1000.000000pt" viewBox="0 0 1000.000000 1000.000000" preserveAspectRatio="xMidYMid meet">

<g transform="translate(0.000000,1000.000000) scale(0.100000,-0.100000)" fill="#fafafa" stroke="none">
<path d="M7060 5245 l0 -1315 210 0 210 0 0 1315 0 1315 -210 0 -210 0 0 -1315z" fill="#fafafa"/>
<path d="M681 5448 c1 -546 5 -1107 8 -1246 l6 -253 135 138 c75 76 245 254 379 396 134 141 249 257 256 257 15 0 164 -154 525 -544 l255 -275 447 2 c245 1 450 5 454 9 13 13 -85 122 -766 852 l-435 466 -242 -247 -242 -248 -1 843 0 842 -390 0 -390 0 1 -992z" fill="#fafafa"/>
<path d="M1960 5873 l0 -557 51 49 c83 81 261 278 280 310 10 17 32 39 49 50 31 20 488 502 592 624 l56 66 -251 6 c-139 3 -370 7 -514 8 l-263 1 0 -557z" fill="#fafafa"/>
<path d="M3825 5634 c-246 -36 -401 -115 -557 -284 -91 -98 -140 -179 -177 -295 -163 -506 106 -1007 606 -1132 106 -27 411 -24 514 5 129 35 271 119 390 231 l54 51 -30 26 c-16 14 -83 66 -148 115 l-118 90 -65 -59 c-218 -201 -527 -214 -714 -32 -56 54 -120 176 -120 228 l0 29 167 6 c91 4 374 7 629 7 255 0 464 3 466 8 2 4 1 86 -3 182 -6 147 -11 189 -34 265 -34 116 -91 223 -163 307 -150 177 -295 244 -547 252 -66 3 -133 2 -150 0z m232 -329 c130 -39 230 -159 258 -306 12 -64 16 -64 -404 -67 -261 -2 -388 0 -415 8 -37 11 -38 13 -33 49 8 62 56 149 119 216 67 72 119 101 204 114 71 11 211 4 271 -14z" fill="#fafafa"/>
<path d="M5825 5625 c-149 -27 -261 -89 -361 -198 l-62 -67 -7 118 -7 119 -136 6 c-74 4 -161 7 -194 7 l-58 0 0 -1235 0 -1235 203 0 204 0 7 492 c4 271 9 494 11 497 3 2 26 -14 52 -37 85 -74 192 -141 259 -162 57 -17 93 -20 265 -20 225 0 256 6 379 80 146 86 246 192 320 340 54 108 79 196 92 332 21 221 -14 414 -105 578 -54 97 -187 232 -282 288 -167 98 -383 134 -580 97z m227 -385 c138 -46 250 -150 297 -276 29 -77 43 -207 32 -290 -21 -147 -126 -287 -265 -354 -187 -90 -400 -63 -550 71 -121 108 -184 287 -158 456 47 307 347 490 644 393z" fill="#fafafa"/>
<path d="M8400 5625 c-181 -26 -382 -114 -509 -225 l-25 -21 106 -106 106 -106 79 50 c141 90 258 118 430 102 172 -16 274 -79 308 -190 19 -65 20 -159 3 -159 -105 -1 -439 -24 -523 -35 -298 -41 -470 -136 -565 -315 l-35 -65 0 -155 0 -155 33 -61 c62 -114 188 -213 327 -257 60 -19 92 -22 220 -21 248 1 352 39 488 179 l77 80 0 -118 0 -117 179 0 c99 0 182 3 184 8 3 4 1 282 -3 617 -9 670 -9 668 -73 789 -120 227 -427 334 -807 281z m490 -1008 c0 -183 -66 -309 -200 -378 -42 -22 -57 -24 -200 -24 -180 0 -212 10 -267 83 -132 175 16 338 340 372 39 4 129 8 200 9 l127 1 0 -63z" fill="#fafafa"/>
</g>
</svg>