<?xml version="1.0" encoding="UTF-8" standalone="yes"?>
<svg width="600px" height="600px" viewBox="0 0 600 600" version="1.2" baseProfile="tiny-ps" xmlns="http://www.w3.org/2000/svg">
  <title>bimi-svg-tiny-12-ps</title>
  <g id="surface1">
    <path d="M 423.308594 281.25 L 423.308594 380 L 448.207031 380 L 448.207031 182.5 L 423.308594 182.5 Z M 423.308594 281.25 " stroke="none" fill-rule="nonzero" fill="rgb(0%,0%,0%)" fill-opacity="1"/>
    <path d="M 40.835938 285 C 40.835938 336.5 41.234375 378.75 41.632812 378.75 C 42.03125 378.75 52.488281 365.25 64.742188 348.75 C 77.089844 332.25 87.449219 318.75 87.847656 318.75 C 88.246094 318.75 99.003906 332.75 111.753906 350 L 134.960938 381.25 L 162.152344 381.25 C 185.558594 381.25 189.34375 381 189.042969 379.375 C 188.84375 378.375 174.402344 358.375 156.871094 334.875 C 139.34375 311.375 123.109375 289.625 120.71875 286.375 L 116.535156 280.625 L 102.089844 299.375 L 87.648438 318.125 L 87.648438 191.25 L 40.835938 191.25 Z M 40.835938 285 " stroke="none" fill-rule="nonzero" fill="rgb(0%,0%,0%)" fill-opacity="1"/>
    <path d="M 117.53125 233.875 L 117.53125 276 L 128.085938 262.375 C 134.5625 254 138.347656 248.25 137.847656 247.375 C 137.449219 246.5 137.550781 246.25 138.148438 246.625 C 138.746094 247.125 141.832031 243.875 145.019531 239.625 C 168.027344 209 175.496094 199 177.289062 196 L 179.382812 192.625 L 148.40625 192.25 L 117.53125 191.875 Z M 117.53125 233.875 " stroke="none" fill-rule="nonzero" fill="rgb(0%,0%,0%)" fill-opacity="1"/>
    <path d="M 221.316406 253.75 C 217.332031 255.125 211.652344 257.75 208.863281 259.625 C 201.890625 264.25 191.335938 277.75 188.046875 286.25 C 174.902344 319.75 184.859375 359.875 210.160156 375.375 C 218.925781 380.75 225.296875 382.5 236.554688 382.5 C 247.3125 382.5 253.882812 380.875 261.453125 376.125 C 267.132812 372.625 278.882812 361 278.882812 358.875 C 278.882812 358.5 274.902344 354.375 270.019531 349.75 L 261.15625 341.375 L 258.367188 345.125 C 243.328125 364.875 217.828125 361.875 209.5625 339.5 C 206.972656 332.375 206.574219 328.75 208.464844 328.75 C 209.0625 328.75 226.292969 328.625 246.515625 328.375 L 283.367188 328.125 L 283.265625 316.125 C 283.066406 301.875 281.671875 293.625 277.589844 282.5 C 274.105469 273.25 265.636719 261.75 259.164062 257.625 C 249.105469 251.125 233.964844 249.625 221.316406 253.75 Z M 244.125 276.875 C 250.296875 279.625 255.675781 286.75 257.46875 294.25 C 260.257812 306 262.449219 305 233.066406 305 C 203.882812 305 205.875 305.875 209.164062 294.625 C 211.355469 287.25 216.734375 279.875 222.113281 277 C 226.691406 274.5 238.546875 274.5 244.125 276.875 Z M 244.125 276.875 " stroke="none" fill-rule="nonzero" fill="rgb(0%,0%,0%)" fill-opacity="1"/>
    <path d="M 346.117188 253.25 C 338.546875 255.625 332.867188 259.75 327.789062 267 L 323.804688 272.75 L 323.507812 263.5 L 323.207031 254.375 L 311.554688 254 L 299.800781 253.625 L 299.800781 440 L 324.703125 440 L 324.703125 402.5 C 324.703125 381.875 325 365 325.296875 365 C 325.695312 365 327.988281 367.25 330.378906 370.125 C 332.867188 372.875 337.351562 376.75 340.4375 378.5 C 345.71875 381.625 347.113281 381.875 359.5625 381.875 C 372.710938 381.875 373.207031 381.75 379.582031 377.875 C 391.832031 370.25 400.496094 357.875 405.078125 340.75 C 408.167969 329.5 408.566406 308.875 405.875 296.25 C 399.105469 263.625 373.207031 245 346.117188 253.25 Z M 366.035156 283 C 376.792969 289 382.96875 301.625 382.867188 317.625 C 382.867188 325.5 382.371094 328.5 380.078125 334.125 C 374.902344 347.375 365.039062 355 352.988281 355 C 337.949219 355 325.496094 340.375 324.003906 320.875 C 321.8125 291.125 344.324219 271 366.035156 283 Z M 366.035156 283 " stroke="none" fill-rule="nonzero" fill="rgb(0%,0%,0%)" fill-opacity="1"/>
    <path d="M 499.503906 253.25 C 491.734375 255.125 480.378906 261.75 475.097656 267.375 L 471.613281 271.125 L 484.363281 287.375 L 488.746094 283.5 C 496.316406 277 503.285156 274.625 512.949219 275.25 C 526.691406 276 533.863281 283 534.164062 296 L 534.363281 301.875 L 517.929688 302.75 C 489.144531 304.125 475.398438 311.125 468.328125 328 C 466.035156 333.5 465.636719 335.875 465.636719 345 C 465.636719 354.625 465.9375 356.25 468.726562 362.5 C 471.015625 367.5 473.507812 370.875 477.886719 374.625 C 485.457031 381.125 492.230469 383 505.179688 382.25 C 517.03125 381.5 523.605469 378 530.378906 368.5 L 534.859375 362.25 L 534.859375 380 L 556.871094 380 L 556.574219 332.75 C 556.273438 286.625 556.175781 285.5 553.882812 278.25 C 550.996094 269.25 546.515625 262.75 539.941406 258.25 C 530.179688 251.625 514.042969 249.625 499.503906 253.25 Z M 532.867188 331.25 C 532.867188 343.5 529.28125 351.375 521.414062 356.625 C 518.328125 358.625 515.636719 359.25 508.964844 359.375 C 499.203125 359.375 495.121094 357.375 492.03125 350.875 C 487.949219 342.5 490.238281 334.375 498.207031 329.5 C 504.582031 325.625 511.453125 324.125 523.707031 323.875 L 532.867188 323.75 Z M 532.867188 331.25 " stroke="none" fill-rule="nonzero" fill="rgb(0%,0%,0%)" fill-opacity="1"/>
  </g>
</svg>